{"title":"The.Condemned.2.2015.BRRip.480p.x264.AAC-VYTO [P2PDL]","uid":13115272,"size":360220559,"categoryP":"video","categoryS":"movies","magnet":"?xt=urn:btih:308fadca25041556a100bd0010172feb978ec2b4&amp;dn=The.Condemned.2.2015.BRRip.480p.x264.AAC-VYTO+%5BP2PDL%5D&amp;tr=udp%3A%2F%2Ftracker.leechers-paradise.org%3A6969&amp;tr=udp%3A%2F%2Fzer0day.ch%3A1337&amp;tr=udp%3A%2F%2Fopen.demonii.com%3A1337&amp;tr=udp%3A%2F%2Ftracker.coppersurfer.tk%3A6969&amp;tr=udp%3A%2F%2Fexodus.desync.com%3A6969","seeders":0,"leechers":1,"uploader":"VYTOP2PDL","files":7,"time":1451562723,"description":"____    ____ ____    ____ .___________.  ______   \r\n     /   /      /   / |           | /  __    \r\n    /   /      /   /  `---|  |----`|  |  |  | \r\n        /     _    _/       |  |     |  |  |  | \r\n       /        |  |         |  |     |  `--'  | \r\n    __/         |__|         |__|      ______/  \r\n                                                  \r\nPresenting Small Encodes with quality for years!\r\n                                                                                                   \r\n                                                                                                   \r\n\r\nThe.Condemned.2.2015.BRRip.480p.x264.AAC-VYTO\r\n\r\n\r\nGenre: Action, Thriller  \nhttp://www.imdb.com/title/tt4151192/\r\n\r\n\r\nFormat                                   : MPEG-4)\r\nFile size                                : 336 MiB\r\nDuration                                 : 1h 30mn\r\nOverall bit rate                         : 521 Kbps\r\n\r\nVideo\r\nFormat                                   : AVC\r\nBit rate                                 : 486 Kbps\r\nWidth                                    : 720 pixels\r\nHeight                                   : 400 pixels\r\nDisplay aspect ratio                     : 16:9\r\nFrame rate mode                          : Constant\r\nFrame rate                               : 23.976 fps\r\nBit depth                                : 8 bits\r\nStream size                              : 313 MiB (93%)\r\nWriting library                          : x264\r\n\r\nAudio\r\nFormat                                   : AAC\r\nBit rate mode                            : Variable\r\nBit rate                                 : 32.0 Kbps\r\nChannel(s)                               : 2 channels \r\nChannel positions                        : Front: L R \r\nSampling rate                            : 48.0 KHz\r\nStream size                              : 20.7 MiB (6%)\r\nLanguage                                 : English\r\n\r\nSubtitle                                 : Yes (English)\r\n\r\nScreen Shots: (Click to view)\r\n \nhttp://ititli.com/Z8 \nhttp://ititli.com/Ze \nhttp://ititli.com/Zj \nhttp://ititli.com/Zk \nhttp://ititli.com/Zo \nhttp://ititli.com/ZG \nhttp://ititli.com/ZH \nhttp://ititli.com/ZM\r\n\r\n----------------------------------------------------------------------------------------------------\r\n\r\n\r\nEncoder Notes: Looking For Early Access To Anything You Can Provide WEBDL, DVDScr, DVDR, BluRay,\r\nDirect Audio, Music Releases and Seedboxes. If You Got anything to offer please contact us.\r\n\r\nSupport us by donating BC - 1FgwdzPsd1y25Gea8wP1qni35uGCtmkRCD\r\n\r\nSend some love!\r\nind us and join us!","torrent":{"xt":"urn:btih:308fadca25041556a100bd0010172feb978ec2b4","amp;dn":"The.Condemned.2.2015.BRRip.480p.x264.AAC-VYTO+%5BP2PDL%5D","amp;tr":["udp%3A%2F%2Ftracker.leechers-paradise.org%3A6969","udp%3A%2F%2Fzer0day.ch%3A1337","udp%3A%2F%2Fopen.demonii.com%3A1337","udp%3A%2F%2Ftracker.coppersurfer.tk%3A6969","udp%3A%2F%2Fexodus.desync.com%3A6969"],"infoHash":"308fadca25041556a100bd0010172feb978ec2b4","infoHashBuffer":{"type":"Buffer","data":[48,143,173,202,37,4,21,86,161,0,189,0,16,23,47,235,151,142,194,180]},"announce":[],"urlList":[]}}